<svg xmlns="http://www.w3.org/2000/svg" width="216" height="216" viewBox="0 0 216 216">
    <g fill="none" fill-rule="evenodd">
        <path fill="#F9FCF9" d="M-773-520H667V560H-773z"/>
        <path fill="#DD0C25" fill-rule="nonzero" d="M108 100a8 8 0 1 0 0 16 8 8 0 0 0 0-16zm0 14.5a6.5 6.5 0 1 1 0-13 6.5 6.5 0 0 1 0 13zm0-10.992c-.572 0-1.006.3-1.006.782v4.43c0 .484.433.782 1.007.782.559 0 1.006-.31 1.006-.782v-4.43c0-.471-.447-.782-1.006-.782zm0 6.992a1 1 0 0 0 0 1.997 1 1 0 0 0 0-1.997z"/>
    </g>
</svg>
