<svg xmlns="http://www.w3.org/2000/svg" width="246" height="214" viewBox="0 0 246 214">
    <g fill="none" fill-rule="evenodd">
        <path fill="#F9FCF9" d="M-597-438H843V642H-597z"/>
        <g fill="#0E8C80">
            <path d="M117.426 109.059c1.288-2.028 4.056-2.578 5.008-1.973 0 0-.273 2.135-1.562 4.162-1.288 2.028-4.055 2.578-5.008 1.973 0 0 .274-2.134 1.562-4.162M111.86 108.119c1.675-1.61 4.401-1.492 5.157-.706 0 0-.746 1.944-2.422 3.555-1.676 1.609-4.403 1.49-5.158.704 0 0 .746-1.943 2.422-3.553M106.58 107.441c1.593-1.04 3.768-.53 4.256.218 0 0-.895 1.45-2.489 2.49-1.593 1.04-3.769.53-4.257-.218 0 0 .896-1.449 2.49-2.49M117.426 104.394c1.288 2.028 4.056 2.577 5.008 1.973 0 0-.273-2.135-1.562-4.162-1.288-2.028-4.055-2.578-5.008-1.973 0 0 .274 2.134 1.562 4.162"/>
            <path d="M111.86 105.334c1.675 1.61 4.401 1.491 5.157.705 0 0-.746-1.943-2.422-3.554-1.676-1.61-4.403-1.491-5.158-.704 0 0 .746 1.942 2.422 3.553M106.58 106.01c1.593 1.042 3.768.53 4.256-.217 0 0-.895-1.45-2.489-2.49-1.593-1.041-3.769-.53-4.257.218 0 0 .896 1.449 2.49 2.49M102.624 107.914c1.547.467 3.199-.468 3.418-1.194 0 0-1.076-.968-2.624-1.435-1.546-.467-3.198.468-3.418 1.194 0 0 1.077.967 2.624 1.435M127.928 104.521c-1.289 2.028-4.057 2.578-5.008 1.973 0 0 .273-2.134 1.562-4.162 1.288-2.028 4.055-2.577 5.007-1.973 0 0-.273 2.135-1.56 4.162M133.496 105.461c-1.677 1.61-4.403 1.492-5.16.705 0 0 .747-1.943 2.424-3.553 1.675-1.61 4.402-1.492 5.158-.705 0 0-.746 1.943-2.422 3.553M138.775 106.138c-1.594 1.04-3.769.53-4.257-.218 0 0 .896-1.449 2.49-2.49 1.592-1.04 3.768-.529 4.256.218 0 0-.895 1.45-2.489 2.49M127.928 109.186c-1.289-2.028-4.057-2.578-5.008-1.973 0 0 .273 2.134 1.562 4.162 1.288 2.03 4.055 2.577 5.007 1.973 0 0-.273-2.134-1.56-4.162"/>
            <path d="M133.496 108.246c-1.677-1.61-4.403-1.492-5.16-.705 0 0 .747 1.943 2.424 3.553 1.675 1.61 4.402 1.491 5.158.706 0 0-.746-1.944-2.422-3.554M138.775 107.57c-1.594-1.042-3.769-.53-4.257.217 0 0 .896 1.45 2.49 2.49 1.592 1.04 3.768.53 4.256-.218 0 0-.895-1.45-2.489-2.49M142.731 105.666c-1.548-.467-3.199.469-3.418 1.194 0 0 1.076.968 2.623 1.436 1.547.467 3.198-.469 3.418-1.195 0 0-1.076-.967-2.623-1.435"/>
        </g>
    </g>
</svg>
