<svg xmlns="http://www.w3.org/2000/svg" width="150" height="150" viewBox="0 0 150 150">
    <g fill="none" fill-rule="evenodd">
        <path fill="#138C80" fill-rule="nonzero" d="M28.472 112.475h5.376c10.181 11.146 24.825 18.152 41.067 18.152s30.886-7.006 41.067-18.152h5.331c-10.956 13.542-27.698 22.22-46.449 22.22-18.721 0-35.45-8.678-46.392-22.22zm-12.977-31.73A60.172 60.172 0 0 1 15.22 75c0-32.898 26.797-59.695 59.695-59.695 32.899 0 59.695 26.797 59.695 59.695a60.271 60.271 0 0 1-.282 5.746h-4.08c.194-1.89.294-3.806.294-5.746-.05-30.661-24.966-55.627-55.678-55.627-30.66 0-55.576 24.966-55.576 55.627 0 1.94.1 3.857.295 5.746h-4.088z"/>
        <g fill="#454545">
            <path fill-rule="nonzero" d="M48.78 51.56a3.082 3.082 0 0 1 3.101 3.101c0 1.678-1.373 3.102-3.101 3.102-1.678 0-3.051-1.373-3.051-3.102 0-1.729 1.373-3.102 3.05-3.102zm-2.594 25.474V59.847h5.238v17.187h-5.238z"/>
            <path d="M53.56 64.83c0-7.627 5.796-12.813 12.66-12.813 7.373 0 10.627 4.729 11.39 8.237l-5.135 1.627c-.356-1.678-1.933-4.576-6.255-4.576-3.305 0-6.966 2.34-6.966 7.526 0 4.576 3.407 7.27 7.068 7.27 4.271 0 5.95-2.847 6.407-4.576L77.966 69c-.813 3.407-4.068 8.593-11.644 8.593-7.068 0-12.763-5.085-12.763-12.762z"/>
            <path fill-rule="nonzero" d="M83.61 67.119l4.068-.61c.915-.153 1.22-.61 1.22-1.17 0-1.017-.864-1.881-2.542-1.881-1.83 0-2.848 1.22-2.95 2.542l-4.575-.915c.203-2.44 2.491-5.695 7.525-5.695 5.542 0 7.627 3.102 7.627 6.66v8.39c0 1.374.153 2.492.203 2.645h-4.728c-.051-.153-.153-.763-.153-1.932-.915 1.474-2.542 2.44-4.83 2.44-3.763 0-5.95-2.491-5.95-5.237 0-3.102 2.238-4.83 5.085-5.237zm5.288 3.203v-.763l-3.254.509c-1.119.152-1.932.712-1.932 1.881 0 .915.61 1.78 2.034 1.78 1.576 0 3.152-.763 3.152-3.407z"/>
            <path d="M108.017 65.034c-.61-.153-1.119-.153-1.678-.153-2.085 0-4.017 1.22-4.017 4.678v7.475h-5.237V59.847h5.084v2.34c.916-1.933 3.102-2.492 4.475-2.492.509 0 1.017.05 1.373.152v5.187z"/>
        </g>
        <path fill="#138C80" d="M4.746 83.288L11.66 96.56l-6.915 13.322h140.288l-6.915-13.322 6.915-13.27z"/>
        <g fill="#FFF">
            <path fill-rule="nonzero" d="M29 100.983h-6.153l-1.118 3.203h-3.712l5.95-15.864h4.118l5.898 15.864H30.12L29 100.983zm-4.983-3.203h3.864L26 92.288l-1.983 5.492z"/>
            <path d="M34.136 96.305c0-4.932 3.762-8.288 8.186-8.288 4.78 0 6.864 3.05 7.373 5.339l-3.356 1.068c-.254-1.119-1.271-2.95-4.068-2.95-2.135 0-4.525 1.526-4.525 4.831 0 3 2.186 4.678 4.576 4.678 2.746 0 3.864-1.83 4.17-3l3.355.966c-.508 2.187-2.593 5.543-7.525 5.543-4.525.05-8.186-3.204-8.186-8.187z"/>
            <path fill-rule="nonzero" d="M61.034 100.983H54.88l-1.118 3.203H50.05L56 88.322h4.119l5.898 15.864h-3.864l-1.12-3.203zM56.05 97.78h3.864l-1.881-5.492-1.983 5.492zM67.95 104.237V88.373h5.745c4.78 0 7.983 3.05 7.983 7.932 0 4.881-3.203 7.932-7.983 7.932h-5.746zm5.643-3.356c2.44 0 4.424-1.423 4.424-4.576 0-3.152-1.983-4.627-4.424-4.627H71.56v9.203h2.034z"/>
            <path d="M84.22 104.237V88.373h10.068v3.356H87.78v3h5.898v3.102H87.78v3.05h6.508v3.356zM111.78 104.237V93.712l-4.119 10.525h-2.847l-4.12-10.373v10.373H97.34V88.373h4.627l4.373 10.729 4.119-10.73h4.83v15.865zM117.17 88.373h4.118l3.254 5.898 3.305-5.898h3.916l-5.594 9.254v6.61h-3.559v-6.61z"/>
        </g>
        <g fill="#138C80">
            <path d="M40.593 41.847a8.298 8.298 0 0 1 1.882-1.88c.356-.255.711-.408 1.017-.56.305-.153.61-.204.813-.254.102 0 .203-.051.254-.051h.102s0 .05-.05.101c0 .051-.052.153-.103.255l-.406.813c-.204.305-.407.661-.661.966-.255.356-.56.661-.865.966a6.84 6.84 0 0 1-.966.814 5.071 5.071 0 0 1-.966.61c-.152.102-.305.153-.407.204-.152.05-.254.101-.356.152-.101.05-.203.05-.254.102h-.102v-.102c0-.05.051-.152.051-.254.051-.102.051-.254.102-.407.05-.153.102-.305.203-.458.255-.254.458-.66.712-1.017zM36.017 49.983c.05-.102.152-.203.254-.305l.356-.356c.254-.254.56-.458.915-.661.356-.203.661-.356 1.017-.407a3.798 3.798 0 0 1 1.017-.152c.305 0 .61.05.865.101.254.051.457.153.61.255.05.05.152.101.152.101l.051.051s0 .051-.05.051a.702.702 0 0 0-.153.203c-.153.153-.356.356-.61.509-.255.203-.56.356-.865.56a6.06 6.06 0 0 1-1.017.406c-.356.102-.712.203-1.017.203a2.76 2.76 0 0 1-.915 0c-.152 0-.254-.05-.356-.05-.102-.051-.203-.051-.305-.102-.102-.051-.152-.051-.203-.102-.051 0-.051-.05-.051-.05s0-.052.05-.102c.102 0 .153-.051.255-.153zM33.525 54.305c.051-.102.153-.203.255-.356.101-.102.203-.254.305-.356.254-.254.508-.508.813-.762a6.514 6.514 0 0 1 1.017-.56 4.54 4.54 0 0 1 1.017-.305c.305-.05.661-.05.915 0 .255.05.509.102.661.153.102.05.153.05.204.101.05 0 .05.051.05.051s0 .051-.05.102c-.051.05-.102.102-.153.203-.152.153-.305.356-.559.61-.254.204-.508.458-.814.661-.305.204-.61.407-.966.56a8.07 8.07 0 0 1-1.017.356c-.305.101-.66.101-.915.101h-.356c-.101 0-.203-.05-.305-.05-.102 0-.152-.051-.203-.051-.051 0-.051-.051-.051-.051s0-.051.05-.102c0-.102.052-.203.102-.305zM31.542 58.881c.051-.101.102-.203.204-.356.101-.152.152-.254.254-.406.203-.305.458-.56.763-.865.305-.254.61-.508.915-.66a2.521 2.521 0 0 1 1.017-.408 2.88 2.88 0 0 1 .915-.152c.254 0 .509.05.661.102.102 0 .153.05.204.05.05 0 .05.051.05.051s0 .051-.05.102c-.051.05-.051.153-.153.203-.102.204-.305.407-.508.661a5.393 5.393 0 0 1-.763.763c-.254.254-.61.458-.915.661a4.158 4.158 0 0 1-.967.458c-.305.101-.61.203-.915.254-.152 0-.254.05-.407.05h-.305c-.101 0-.152 0-.203-.05h-.05s0-.05.05-.102c.153-.152.153-.254.203-.356zM30.068 63.61c.05-.102.101-.254.152-.407.051-.152.153-.305.255-.457.152-.305.406-.61.66-.915.255-.306.56-.56.865-.814.305-.203.61-.407.966-.56.305-.152.61-.203.915-.254.255-.05.509-.05.712 0 .102 0 .153 0 .204.051h.05s0 .051-.05.102c0 .05-.051.152-.102.254-.102.204-.254.458-.407.712-.203.254-.407.56-.66.814-.255.254-.56.508-.814.762-.306.255-.61.458-.916.61-.305.153-.61.306-.864.356-.153.051-.254.051-.407.102-.102 0-.203.05-.305.05h-.305s0-.05.05-.1c-.05-.102 0-.204 0-.306zM29.153 68.492c.05-.102.05-.255.101-.407.051-.153.102-.305.204-.458.152-.356.356-.66.559-1.017.203-.356.508-.66.763-.915.305-.254.61-.509.915-.661.305-.153.61-.305.864-.356.255-.102.509-.102.712-.102h.305s0 .051-.05.102c0 .05-.051.153-.102.254-.051.204-.204.458-.356.763-.153.305-.356.61-.56.915a4.05 4.05 0 0 1-.762.865c-.254.254-.56.508-.865.711-.305.204-.61.356-.864.458-.153.05-.254.102-.356.153-.102.05-.203.05-.305.101-.102 0-.153 0-.203.051h-.102v-.102c.05-.152.05-.254.102-.355zM28.797 73.424c0-.102.05-.255.05-.407.051-.153.051-.305.153-.509.102-.355.254-.711.458-1.067.203-.356.406-.712.66-1.017.255-.305.56-.56.814-.814.305-.203.56-.356.865-.508.254-.102.508-.153.66-.204.102 0 .153 0 .204-.05h.102v.101c0 .051-.051.153-.051.254-.051.204-.153.509-.254.814-.102.305-.305.661-.458.966a6.475 6.475 0 0 1-.661.966c-.254.305-.508.61-.763.814-.254.254-.56.457-.813.61-.153.05-.255.152-.356.203-.102.051-.204.102-.305.102-.102.05-.153.05-.204.05h-.101v-.1c-.051 0-.051-.103 0-.204zM35.305 43.271c.102.153.203.356.305.661.102.254.204.61.204.966.05.356.05.763.05 1.17 0 .407-.101.813-.152 1.22-.102.407-.204.814-.305 1.17-.051.152-.102.356-.204.508-.05.153-.101.254-.203.407-.05.102-.102.203-.153.254-.05.051-.05.102-.05.102l-.051-.051-.153-.153c-.05-.05-.101-.152-.203-.254-.051-.102-.153-.203-.204-.305a2.43 2.43 0 0 1-.305-.915 8.346 8.346 0 0 1-.101-1.17c0-.406.05-.864.152-1.27.102-.408.254-.865.407-1.221.153-.356.356-.661.458-.915.05-.102.152-.204.203-.255.05-.05.05-.101.05-.101l.052.05c.101 0 .152.051.203.102zM32.102 47.898c.101.153.254.305.406.56.153.254.255.559.356.915.102.356.153.712.153 1.119v1.22c-.05.407-.102.813-.203 1.17-.051.203-.102.355-.153.508-.05.152-.102.305-.153.407-.05.101-.101.203-.101.254-.051.05-.051.102-.051.102l-.05-.051c-.052-.051-.103-.051-.153-.102-.051-.05-.153-.102-.204-.203-.102-.102-.152-.204-.254-.305a2.74 2.74 0 0 1-.407-.865c-.102-.356-.203-.712-.254-1.119-.05-.406-.05-.864.05-1.27.052-.407.153-.865.255-1.221.102-.356.254-.712.356-.966l.152-.305c.051-.051.051-.102.051-.102l.051.05c0 .052.051.103.153.204zM29.356 52.78c.152.101.305.305.458.508.152.204.305.509.457.865.153.305.254.711.305 1.067.051.407.102.814.102 1.22 0 .407 0 .814-.05 1.17 0 .204-.052.356-.103.509-.05.152-.05.305-.101.406-.051.102-.051.204-.102.306 0 .05-.05.101-.05.101s-.052 0-.052-.05c-.05 0-.101-.051-.203-.102-.05-.051-.153-.102-.254-.153-.102-.05-.204-.152-.305-.254-.204-.204-.356-.458-.509-.763-.152-.305-.254-.66-.356-1.068-.101-.406-.101-.813-.101-1.27 0-.408.05-.865.152-1.221.102-.407.203-.712.254-.966.051-.102.102-.254.102-.305.05-.051.05-.102.05-.102l.052.05c.101-.05.203 0 .254.052zM27.17 57.966c.152.102.355.254.508.458.203.203.356.457.56.762.152.306.304.661.406 1.017a7.9 7.9 0 0 1 .254 1.17c.051.407.102.763.051 1.17v.508c0 .152-.05.305-.05.407 0 .101-.052.203-.052.305v.101h-.05c-.051 0-.102-.05-.204-.05-.101-.051-.152-.051-.254-.153a1.064 1.064 0 0 1-.305-.203c-.203-.153-.407-.407-.61-.661a4.745 4.745 0 0 1-.509-1.017c-.152-.356-.203-.763-.254-1.22a4.896 4.896 0 0 1 0-1.221c.05-.407.102-.763.153-1.017.05-.153.05-.254.101-.305 0-.05.051-.102.051-.102s.05 0 .05.051c0-.102.052-.05.153 0zM25.542 63.356c.153.05.356.203.56.356.203.152.457.407.66.66.204.255.407.611.56.967.153.356.305.712.407 1.119.102.356.152.762.203 1.118 0 .153.051.356.051.509v.813h-.102c-.05 0-.101 0-.203-.05-.102 0-.203-.051-.305-.102a2.479 2.479 0 0 0-.356-.153 3.422 3.422 0 0 1-.712-.56c-.203-.253-.458-.558-.61-.914a7.905 7.905 0 0 1-.407-1.17 5.015 5.015 0 0 1-.152-1.22c0-.407 0-.763.05-1.017 0-.153.051-.254.051-.305v-.102h.051c.102 0 .204 0 .254.05zM24.525 68.847c.153.051.407.153.61.255.255.152.51.356.712.559.255.254.458.56.661.864.204.306.407.661.509 1.017.152.356.254.712.356 1.068.05.153.05.356.102.509 0 .152.05.305.05.406V73.932h-.305c-.101 0-.203 0-.305-.05-.101-.051-.254-.051-.356-.102a3.035 3.035 0 0 1-.762-.458c-.255-.203-.509-.508-.712-.814a7.068 7.068 0 0 1-.56-1.067 5.694 5.694 0 0 1-.305-1.17c-.05-.356-.05-.712-.05-1.017v-.305-.102h.355z"/>
            <path d="M39.17 44.593c.101.102.05.305-.051.407-8.085 9.661-12.255 22.78-10.272 35.339.051.203-.05.356-.203.407-.152.05-.254-.051-.305-.254-1.983-12.712 2.186-25.984 10.424-35.797.152-.153.305-.153.406-.102z"/>
            <path d="M38.864 46.271c.051-.102.153-.203.255-.305l.356-.356c.254-.254.559-.457.915-.66.356-.204.66-.357 1.017-.408a3.798 3.798 0 0 1 1.017-.152c.305 0 .61.05.864.102.254.05.458.152.61.254.051.05.153.101.153.101l.05.051s0 .051-.05.051a.702.702 0 0 0-.153.204c-.152.152-.356.355-.61.508-.254.203-.56.356-.864.56a6.06 6.06 0 0 1-1.017.406c-.356.102-.712.204-1.017.204a2.76 2.76 0 0 1-.915 0c-.153 0-.255-.051-.356-.051-.102-.051-.204-.051-.305-.102-.102-.05-.153-.05-.204-.102-.05 0-.05-.05-.05-.05s0-.051.05-.102c.153.05.204-.051.254-.153zM38.56 38.746c.101.152.203.356.304.66.102.255.204.61.204.967.05.356.05.763.05 1.17 0 .406-.101.813-.152 1.22-.102.406-.203.813-.305 1.17-.05.152-.102.355-.203.508-.051.152-.102.254-.204.406-.05.102-.101.204-.152.255-.051.05-.051.101-.051.101l-.051-.05-.153-.153c-.05-.05-.101-.153-.203-.254-.05-.102-.152-.204-.203-.305a2.43 2.43 0 0 1-.305-.916 8.346 8.346 0 0 1-.102-1.17c0-.406.05-.863.152-1.27.102-.407.255-.865.407-1.22.153-.357.356-.662.458-.916.05-.102.152-.203.203-.254.051-.05.051-.102.051-.102l.05.051c.103 0 .153.05.204.102z"/>
        </g>
        <g fill="#138C80">
            <path d="M109.695 41.847a8.298 8.298 0 0 0-1.881-1.88c-.356-.255-.712-.408-1.017-.56-.305-.153-.61-.204-.814-.254-.102 0-.203-.051-.254-.051h-.102s0 .05.051.101c0 .051.05.153.102.255l.406.813c.204.305.407.661.661.966.255.356.56.661.865.966.305.305.66.61.966.814.305.254.661.458.966.61.153.102.305.153.407.204.152.05.254.101.356.152.101.05.203.05.254.102h.102v-.102c0-.05-.051-.152-.051-.254-.051-.102-.051-.254-.102-.407-.05-.153-.102-.305-.203-.458-.254-.254-.458-.66-.712-1.017zM114.322 49.983c-.05-.102-.153-.203-.254-.305l-.356-.356c-.254-.254-.56-.458-.915-.661-.356-.203-.661-.356-1.017-.407a3.798 3.798 0 0 0-1.017-.152c-.305 0-.61.05-.865.101-.254.051-.457.153-.61.255-.05.05-.152.101-.152.101l-.051.051s0 .051.05.051c.051.05.102.102.153.203.153.153.356.356.61.509.255.203.56.356.865.56a6.06 6.06 0 0 0 1.017.406c.356.102.712.203 1.017.203.305.051.66.051.915 0 .152 0 .254-.05.356-.05.101-.051.203-.051.305-.102.102-.051.152-.051.203-.102.051 0 .051-.05.051-.05s0-.052-.05-.102c-.153 0-.204-.051-.255-.153zM116.763 54.305c-.051-.102-.153-.203-.255-.356-.101-.102-.203-.254-.305-.356a11.919 11.919 0 0 0-.813-.762 6.514 6.514 0 0 0-1.017-.56 4.54 4.54 0 0 0-1.017-.305c-.305-.05-.61-.05-.915 0-.255.05-.509.102-.661.153-.102.05-.153.05-.204.101-.05 0-.05.051-.05.051s0 .051.05.102c.051.05.102.102.153.203.152.153.305.356.56.61.253.204.508.458.813.661.305.204.61.407.966.56a8.07 8.07 0 0 0 1.017.356c.305.101.66.101.915.101h.356c.102 0 .203-.05.305-.05.102 0 .153-.051.203-.051.051 0 .051-.051.051-.051s0-.051-.05-.102c0-.102-.051-.203-.102-.305zM118.746 58.881a2.917 2.917 0 0 0-.204-.356c-.101-.152-.152-.254-.254-.406-.203-.305-.457-.56-.763-.865-.305-.254-.61-.508-.915-.66a2.521 2.521 0 0 0-1.017-.408 2.88 2.88 0 0 0-.915-.152c-.254 0-.509.05-.661.102-.102 0-.153.05-.203.05-.051 0-.051.051-.051.051s0 .051.05.102c.051.05.051.153.153.203.102.204.305.407.509.661.203.255.457.509.762.763.255.254.61.458.916.661.305.204.66.356.966.458.305.101.61.203.915.254.152 0 .254.05.407.05h.305c.101 0 .152 0 .203-.05H119s0-.05-.05-.102c-.103-.152-.153-.254-.204-.356zM120.22 63.61c-.05-.102-.101-.254-.152-.407-.051-.152-.153-.305-.254-.457-.153-.305-.407-.61-.661-.915-.255-.306-.56-.56-.865-.814-.305-.203-.61-.407-.966-.56-.305-.152-.61-.203-.915-.254a1.675 1.675 0 0 0-.712 0c-.102 0-.153 0-.203.051h-.051s0 .051.05.102c0 .05.051.152.102.254.102.204.254.458.407.712.203.254.407.56.661.814.254.254.56.508.814.762.305.255.61.458.915.61.305.153.61.306.864.356.153.051.254.051.407.102.102 0 .203.05.305.05h.305s0-.05-.05-.1a.324.324 0 0 0 0-.306zM121.136 68.492c-.051-.102-.051-.255-.102-.407a1.806 1.806 0 0 0-.203-.458c-.153-.356-.356-.66-.56-1.017-.203-.356-.508-.66-.763-.915-.305-.254-.61-.509-.915-.661-.305-.153-.61-.305-.864-.356-.254-.102-.509-.102-.712-.102h-.305s0 .051.05.102c0 .05.052.153.102.254.051.204.204.458.356.763.153.305.356.61.56.915.203.305.457.61.762.865.255.254.56.508.865.711.305.204.61.356.864.458.153.05.254.102.356.153.102.05.204.05.305.101.102 0 .153 0 .204.051h.101v-.102c-.05-.152-.05-.254-.101-.355zM121.492 73.424c0-.102-.051-.255-.051-.407-.051-.153-.051-.305-.153-.509a4.827 4.827 0 0 0-.457-1.067c-.204-.356-.407-.712-.662-1.017-.254-.305-.559-.56-.813-.814a7.655 7.655 0 0 0-.864-.508c-.255-.102-.509-.153-.661-.204-.102 0-.153 0-.204-.05h-.102v.101c0 .051.051.153.051.254.051.204.153.509.255.814.101.305.305.661.457.966.204.356.407.661.661.966.254.305.509.61.763.814.254.254.56.457.813.61.153.05.255.152.356.203.102.051.204.102.305.102.102.05.153.05.204.05h.102v-.1c.05 0 .05-.103 0-.204zM114.983 43.271a2.72 2.72 0 0 0-.305.661 2.71 2.71 0 0 0-.203.966c-.051.356-.051.763-.051 1.17 0 .407.101.813.152 1.22.102.407.204.814.305 1.17.051.152.102.356.204.508.05.153.101.254.203.407.051.102.102.203.153.254.05.051.05.102.05.102l.051-.051.153-.153c.05-.05.102-.152.203-.254.051-.102.153-.203.204-.305a2.43 2.43 0 0 0 .305-.915c.05-.356.101-.763.101-1.17 0-.406-.05-.864-.152-1.27a8.585 8.585 0 0 0-.407-1.221c-.152-.356-.356-.661-.457-.915a1.11 1.11 0 0 0-.204-.255c-.05-.05-.05-.101-.05-.101l-.052.05c-.101 0-.152.051-.203.102zM118.237 47.898c-.101.153-.254.305-.406.56-.153.254-.255.559-.356.915a3.965 3.965 0 0 0-.153 1.119v1.22c.05.407.102.813.203 1.17.051.203.102.355.153.508.05.152.102.305.153.407.05.101.101.203.101.254.051.05.051.102.051.102l.05-.051c.052-.051.103-.051.153-.102.051-.05.153-.102.204-.203.102-.102.152-.204.254-.305a2.74 2.74 0 0 0 .407-.865c.102-.356.203-.712.254-1.119.05-.406.05-.864-.05-1.27a8.618 8.618 0 0 0-.255-1.221c-.102-.356-.254-.712-.356-.966l-.152-.305c-.051-.051-.051-.102-.051-.102l-.051.05c-.051.052-.102.103-.153.204zM120.932 52.78c-.152.101-.305.305-.457.508-.153.204-.306.509-.458.865-.153.305-.254.711-.305 1.067-.051.407-.102.814-.102 1.22 0 .407 0 .814.051 1.17 0 .204.05.356.102.509.05.152.05.305.101.406.051.102.051.204.102.306 0 .05.05.101.05.101s.052 0 .052-.05c.05 0 .101-.051.203-.102.051-.051.153-.102.254-.153.102-.05.204-.152.306-.254.203-.204.355-.458.508-.763.153-.305.254-.66.356-1.068.102-.406.102-.813.102-1.27 0-.408-.051-.865-.153-1.221-.102-.407-.203-.712-.254-.966a1.054 1.054 0 0 1-.102-.305c-.05-.051-.05-.102-.05-.102l-.052.05c-.101-.05-.152 0-.254.052zM123.119 57.966a2.066 2.066 0 0 0-.509.458c-.203.203-.356.457-.56.762a6.06 6.06 0 0 0-.406 1.017 7.9 7.9 0 0 0-.254 1.17c-.051.407-.102.763-.051 1.17v.508c0 .152.05.305.05.407 0 .101.052.203.052.305v.101h.05c.051 0 .102-.05.204-.05.102-.051.152-.051.254-.153.102-.05.204-.102.305-.203.204-.153.407-.407.61-.661.204-.305.356-.61.509-1.017.152-.356.203-.763.254-1.22.051-.407.051-.865 0-1.221-.05-.407-.102-.763-.152-1.017-.051-.153-.051-.254-.102-.305 0-.05-.051-.102-.051-.102s-.05 0-.05.051c0-.102-.052-.05-.153 0zM124.746 63.356c-.153.05-.356.203-.56.356a4.051 4.051 0 0 0-.66.66c-.204.255-.407.611-.56.967-.152.356-.305.712-.407 1.119-.101.356-.152.762-.203 1.118 0 .153-.05.356-.05.509v.813h.1c.052 0 .102 0 .204-.05.102 0 .204-.051.305-.102.102-.051.204-.102.356-.153.254-.152.458-.305.712-.56.203-.253.458-.558.61-.914.153-.356.305-.763.407-1.17.102-.407.153-.813.153-1.22 0-.407 0-.763-.051-1.017 0-.153-.051-.254-.051-.305v-.102H125c-.102 0-.153 0-.254.05zM125.763 68.847c-.153.051-.407.153-.61.255a3.84 3.84 0 0 0-.712.559c-.255.254-.458.56-.661.864-.204.306-.407.661-.509 1.017a8.762 8.762 0 0 0-.356 1.068c-.05.153-.05.356-.101.509 0 .152-.051.305-.051.406V73.932h.305c.101 0 .203 0 .305-.05.102-.051.254-.051.356-.102.254-.102.508-.255.763-.458.254-.203.508-.508.711-.814.204-.305.407-.711.56-1.067.152-.407.254-.814.305-1.17.05-.356.05-.712.05-1.017v-.305-.102h-.355z"/>
            <path d="M111.119 44.593c-.102.102-.051.305.05.407 8.085 9.661 12.255 22.78 10.272 35.339-.051.203.05.356.203.407.153.05.254-.051.305-.254 1.983-12.712-2.186-25.984-10.424-35.797-.101-.153-.305-.153-.406-.102z"/>
            <path d="M111.424 46.271c-.051-.102-.153-.203-.255-.305l-.355-.356c-.255-.254-.56-.457-.916-.66-.356-.204-.66-.357-1.017-.408a3.798 3.798 0 0 0-1.017-.152c-.305 0-.61.05-.864.102-.254.05-.458.152-.61.254-.051.05-.153.101-.153.101l-.05.051s0 .051.05.051c.051.051.102.102.153.204.152.152.356.355.61.508.254.203.56.356.864.56a6.06 6.06 0 0 0 1.017.406c.356.102.712.204 1.017.204.305.05.661.05.916 0 .152 0 .254-.051.355-.051.102-.051.204-.051.306-.102.101-.05.152-.05.203-.102.05 0 .05-.05.05-.05s0-.051-.05-.102c-.102.05-.153-.051-.254-.153zM111.729 38.746a2.72 2.72 0 0 0-.305.66 2.71 2.71 0 0 0-.204.967c-.05.356-.05.763-.05 1.17 0 .406.101.813.152 1.22.102.406.203.813.305 1.17.051.152.102.355.204.508.05.152.101.254.203.406.05.102.102.204.152.255.051.05.051.101.051.101l.051-.05.153-.153c.05-.05.101-.153.203-.254.05-.102.153-.204.203-.305a2.43 2.43 0 0 0 .306-.916c.05-.356.101-.762.101-1.17 0-.406-.05-.863-.152-1.27a8.585 8.585 0 0 0-.407-1.22c-.153-.357-.356-.662-.458-.916a1.11 1.11 0 0 0-.203-.254c-.05-.05-.05-.102-.05-.102l-.052.051c-.101 0-.152.05-.203.102z"/>
        </g>
        <g fill="#454545">
            <path d="M72.627 119.797c.661-1.017 2.085-1.322 2.542-1.017 0 0-.152 1.067-.813 2.135-.661 1.017-2.085 1.322-2.542 1.017 0 0 .152-1.068.813-2.135zM69.78 119.339c.864-.814 2.237-.763 2.644-.356 0 0-.356.966-1.22 1.83-.865.814-2.238.763-2.645.356 0-.05.356-1.016 1.22-1.83zM67.085 118.983c.813-.508 1.932-.254 2.186.102 0 0-.457.712-1.271 1.27-.814.51-1.932.255-2.186-.1 0 0 .457-.713 1.27-1.272z"/>
            <path d="M72.627 117.458c.661 1.017 2.085 1.322 2.542 1.017 0 0-.152-1.068-.813-2.136-.661-1.017-2.085-1.322-2.542-1.017 0 0 .152 1.068.813 2.136zM69.78 117.915c.864.814 2.237.763 2.644.356 0 0-.356-.966-1.22-1.83-.865-.814-2.238-.763-2.645-.356 0 .05.356 1.017 1.22 1.83zM67.085 118.271c.813.509 1.932.254 2.186-.102 0 0-.457-.711-1.271-1.27-.814-.51-1.932-.255-2.186.101 0 0 .457.712 1.27 1.271zM65.102 119.237c.762.255 1.627-.254 1.729-.61 0 0-.56-.508-1.323-.712-.762-.254-1.627.254-1.728.61 0 0 .508.458 1.322.712zM77.966 117.508c-.66 1.017-2.085 1.323-2.542 1.017 0 0 .152-1.067.813-2.135.661-1.017 2.085-1.322 2.543-1.017-.051 0-.153 1.119-.814 2.135zM80.814 117.966c-.865.814-2.238.763-2.645.356 0 0 .356-.966 1.22-1.83.865-.814 2.238-.763 2.645-.356 0 .05-.407 1.017-1.22 1.83zM83.458 118.322c-.814.509-1.933.254-2.187-.102 0 0 .458-.712 1.271-1.27.814-.51 1.933-.255 2.187.1 0 0-.458.764-1.271 1.272zM77.966 119.898c-.66-1.017-2.085-1.322-2.542-1.017 0 0 .152 1.068.813 2.136.661 1.017 2.085 1.322 2.543 1.017-.051-.05-.153-1.119-.814-2.136z"/>
            <path d="M80.814 119.39c-.865-.814-2.238-.763-2.645-.356 0 0 .356.966 1.22 1.83.865.814 2.238.763 2.645.356 0 0-.407-1.017-1.22-1.83zM83.458 119.034c-.814-.509-1.933-.254-2.187.102 0 0 .458.711 1.271 1.27.814.51 1.933.255 2.187-.1 0 0-.458-.713-1.271-1.272zM85.492 118.068c-.763-.254-1.628.254-1.73.61 0 0 .56.508 1.323.712.762.254 1.627-.254 1.729-.61 0 .05-.56-.458-1.322-.712z"/>
        </g>
    </g>
</svg>
