<svg xmlns="http://www.w3.org/2000/svg" width="284" height="284" viewBox="0 0 284 284">
    <g fill="none" fill-rule="evenodd">
        <path fill="#F9FCF9" d="M-578-512H862V568H-578z"/>
        <g fill="#0E8C80">
            <path fill-rule="nonzero" d="M171.698 112.301C163.766 104.37 153.218 100 142 100c-11.219 0-21.766 4.369-29.699 12.301C104.37 120.234 100 130.781 100 142c0 11.219 4.369 21.766 12.301 29.698C120.234 179.631 130.781 184 142 184c11.219 0 21.766-4.369 29.698-12.302C179.631 163.766 184 153.218 184 142c0-11.219-4.369-21.766-12.302-29.699zM142 179.078c-20.445 0-37.078-16.633-37.078-37.078 0-20.445 16.633-37.078 37.078-37.078 20.445 0 37.078 16.633 37.078 37.078 0 20.445-16.633 37.078-37.078 37.078z"/>
            <path d="M162.066 129.836c-.961-.96-2.52-.96-3.48 0l-21.732 21.732-11.44-11.44a2.461 2.461 0 0 0-3.48 3.48l13.18 13.18c.48.48 1.11.721 1.74.721.63 0 1.26-.24 1.74-.72l23.472-23.472a2.46 2.46 0 0 0 0-3.48z"/>
        </g>
        <g fill="#138C80">
            <path d="M169.253 127.573a6.112 6.112 0 0 0-.903-1.772c-.195-.266-.416-.464-.6-.648s-.393-.299-.528-.387c-.074-.027-.135-.088-.172-.102l-.074-.027s-.013.035.012.083c-.013.034-.001.117.01.199l.096.659c.072.26.132.555.241.829.097.308.244.595.39.883.146.287.33.588.5.806.16.253.368.485.552.669.085.11.184.184.245.245.098.075.16.136.22.198.062.06.136.088.16.136l.074.027.025-.07c.013-.034.001-.116.026-.185-.012-.082.026-.186.027-.302 0-.117 0-.234-.035-.364-.122-.24-.17-.569-.266-.877zM170.606 134.307a.99.99 0 0 0-.109-.274l-.17-.335a3.271 3.271 0 0 0-.502-.69c-.209-.232-.393-.416-.638-.544a3.13 3.13 0 0 0-.701-.372 3.698 3.698 0 0 0-.653-.16 1.363 1.363 0 0 0-.506.011c-.05.021-.136.029-.136.029l-.049.02s-.013.035.024.049a.511.511 0 0 1 .061.178c.073.143.17.335.318.506.134.205.318.389.49.607.183.184.404.381.638.544.233.163.466.326.688.407.209.115.467.209.664.242.111.04.198.032.271.06.087-.008.16.019.247.011.086-.007.123.006.173-.015.037.013.05-.021.05-.021s.012-.035-.013-.082c-.11-.04-.135-.089-.147-.17zM171.313 137.88c-.012-.082-.06-.178-.097-.308-.049-.096-.085-.226-.134-.322a8.987 8.987 0 0 0-.402-.732 5.152 5.152 0 0 0-.6-.647 3.7 3.7 0 0 0-.664-.476 2.288 2.288 0 0 0-.665-.242 5.438 5.438 0 0 0-.517-.071c-.087.007-.124-.006-.173.015-.037-.013-.05.021-.05.021s-.012.035.012.082c.025.048.05.096.061.178.073.144.134.322.256.562.134.205.256.444.427.662.172.219.343.437.564.635.22.197.417.347.65.51.197.15.456.243.64.31l.259.094c.073.027.16.02.234.047.074.027.123.006.16.019.037.013.05-.021.05-.021s.012-.034-.012-.082c.025-.07.013-.152 0-.234zM171.624 141.504c-.011-.082-.023-.164-.06-.294-.036-.13-.048-.213-.084-.343-.072-.26-.194-.5-.34-.787-.16-.253-.318-.506-.502-.69a2.03 2.03 0 0 0-.638-.544 2.37 2.37 0 0 0-.627-.346 1.859 1.859 0 0 0-.505-.106c-.074-.026-.124-.005-.16-.019-.037-.013-.05.021-.05.021s-.012.035.012.083c.024.047 0 .116.06.178.024.164.122.356.207.582.085.226.207.465.366.718.121.24.33.471.501.69.172.218.392.416.589.565.196.15.393.3.602.414.11.04.172.102.283.142l.221.08c.074.028.11.041.16.02l.037.014s.013-.035-.012-.083c-.036-.13-.048-.212-.06-.295zM171.53 145.098c-.013-.083-.012-.2-.011-.316 0-.117-.036-.247-.072-.377-.036-.247-.145-.521-.254-.795-.11-.274-.269-.527-.427-.78a4.72 4.72 0 0 0-.564-.634c-.184-.184-.393-.3-.602-.414a1.386 1.386 0 0 0-.517-.188c-.074-.027-.11-.04-.16-.02l-.037-.013s-.012.034.012.082c-.013.035 0 .117.011.2.024.164.072.377.12.59.085.225.157.486.28.725.121.24.28.492.402.732.159.253.33.471.514.655.184.184.368.368.54.47.098.074.172.101.27.176.074.027.135.088.21.115l.147.054.074.027s.012-.035-.012-.083a.22.22 0 0 0 .075-.206zM170.99 148.646c-.012-.082.026-.185.027-.302 0-.117.001-.234-.035-.364-.023-.281-.096-.542-.156-.837-.06-.294-.206-.582-.328-.821-.159-.253-.317-.506-.501-.69-.184-.184-.368-.368-.54-.47a1.527 1.527 0 0 0-.492-.256l-.148-.054-.074-.027s-.012.034.012.082c-.012.035 0 .117.011.2-.013.15.035.363.07.61.036.247.109.508.181.768.073.26.182.534.34.787.123.24.282.492.453.71.171.22.355.403.515.54.098.074.16.135.22.197.062.061.136.088.197.15.074.026.111.04.135.087l.074.027.025-.069c.001-.116.026-.185.014-.268zM170.032 152.082c.026-.07.026-.186.064-.29 0-.116.038-.22.014-.384a3.36 3.36 0 0 0-.069-.844c-.06-.295-.12-.59-.229-.864-.11-.274-.268-.527-.39-.766a6.026 6.026 0 0 0-.502-.573c-.16-.136-.332-.238-.43-.312-.074-.027-.11-.04-.135-.089l-.074-.027-.025.07c-.013.034 0 .116-.026.185-.013.151-.014.385-.016.618-.001.234.059.529.094.776.06.295.133.555.242.829.11.274.219.548.353.753.122.24.294.458.44.628.099.075.148.17.209.232.061.061.122.123.196.15.062.06.099.074.135.088l.074.027.025-.07c.037.014.062-.055.05-.137zM172.741 129.935a1.904 1.904 0 0 0-.384.367c-.137.145-.298.36-.386.6a5.8 5.8 0 0 0-.325.78c-.1.275-.127.578-.19.867-.027.302-.053.604-.067.872-.001.117-.014.268.022.399 0 .116.011.199.047.329a.793.793 0 0 0 .048.213c.025.047.012.082.012.082l.05-.021.148-.063c.05-.021.112-.077.21-.119.062-.055.161-.097.223-.153.174-.131.323-.311.448-.539.124-.228.261-.49.362-.765.1-.276.176-.6.202-.902.027-.302.029-.653.006-.934s-.095-.542-.107-.741c-.011-.082-.06-.178-.085-.226-.024-.048-.011-.082-.011-.082l-.05.02c-.074-.026-.123-.005-.173.016zM173.963 133.93c-.111.076-.26.139-.433.27-.173.133-.322.313-.484.527a2.68 2.68 0 0 0-.387.717l-.3.827a5.412 5.412 0 0 0-.141.846c-.013.151-.014.268-.015.385 0 .117-.001.233.01.316.012.082.024.164.012.199.024.048.012.082.012.082l.05-.02c.049-.022.085-.008.135-.03.05-.02.136-.028.198-.083.099-.042.16-.098.26-.14.16-.097.347-.264.508-.478.162-.214.323-.428.46-.69.138-.263.25-.573.277-.875.063-.29.102-.626.116-.894.014-.268-.009-.55-.02-.749l-.035-.247c-.025-.048-.012-.082-.012-.082l-.05.021c-.05.021-.099.042-.16.098zM174.717 137.949c-.136.028-.297.126-.458.223-.161.098-.347.264-.545.465-.186.166-.36.415-.485.643a6.652 6.652 0 0 0-.375.8c-.1.275-.2.55-.251.805-.05.138-.051.255-.052.371 0 .117-.038.22-.026.303.011.082-.014.151-.002.233-.012.035.012.083.012.083s.037.013.05-.021c.036.013.086-.008.172-.015.05-.021.136-.029.222-.037.087-.007.186-.05.285-.091.197-.084.37-.216.557-.382.186-.167.348-.381.522-.63.174-.248.274-.524.387-.834.1-.276.176-.6.19-.867.027-.303.028-.536.054-.722a.725.725 0 0 1 .001-.233c-.024-.048-.012-.083-.012-.083l-.05.021c-.06-.061-.11-.04-.196-.032zM175.025 142.04a1.566 1.566 0 0 0-.482.176c-.197.084-.37.216-.594.369a4.204 4.204 0 0 0-.546.581 5.368 5.368 0 0 0-.473.725c-.137.262-.262.49-.325.779l-.126.344c-.037.104-.038.22-.063.29-.025.068-.013.15-.038.22l-.025.068.037.014c.036.013.086-.008.16.02.086-.008.123.005.222-.037.086-.008.173-.015.272-.057.185-.05.395-.168.606-.287.223-.153.409-.319.62-.554.198-.201.335-.463.485-.76.137-.262.25-.572.301-.827.064-.289.114-.543.14-.729 0-.117.026-.185.001-.233.013-.035-.011-.083-.011-.083s-.037-.013-.05.021c.025-.069-.024-.048-.11-.04zM174.878 146.121c-.123-.005-.309.044-.494.094s-.433.154-.643.273c-.21.118-.446.306-.644.507-.199.2-.397.401-.571.65-.162.214-.3.476-.424.704-.038.103-.125.228-.162.33l-.1.277-.076.206-.025.07.074.026c.037.013.074.027.16.02.074.026.16.019.247.011a1.99 1.99 0 0 1 .296-.01c.222-.035.407-.085.655-.19.21-.119.47-.258.668-.459.199-.2.41-.436.584-.685.174-.248.311-.51.412-.786.1-.276.188-.517.214-.702.037-.104.025-.186.038-.22l.025-.07-.037-.013c-.074-.027-.11-.04-.197-.033zM174.262 150.11a4.26 4.26 0 0 0-.505.011 2.947 2.947 0 0 0-.655.191c-.248.105-.47.258-.693.411-.223.153-.459.34-.62.555-.199.2-.36.415-.522.629-.075.09-.125.228-.2.318-.037.103-.111.193-.137.262l-.075.206-.025.07.074.026.148.054c.074.027.147.054.234.046.086-.007.197.033.283.025.21-.001.432-.038.667-.108.235-.07.495-.21.717-.363.223-.153.471-.375.67-.576.211-.235.385-.484.51-.711.124-.228.212-.47.287-.676l.076-.207.025-.068-.074-.027-.185-.068z"/>
            <path d="M169.61 129.81c-.1.041-.113.192-.064.288 3.488 8.682 3.281 18.67-1.256 26.655a.23.23 0 0 0 .048.33c.098.074.197.032.284-.092 4.574-8.088 4.82-18.18 1.258-27.006-.037-.13-.184-.183-.27-.176z"/>
            <path d="M169.417 131.026c-.012-.082-.06-.178-.11-.273l-.17-.336a3.271 3.271 0 0 0-.502-.69c-.208-.231-.392-.415-.638-.544a3.13 3.13 0 0 0-.7-.372 3.698 3.698 0 0 0-.653-.16 1.363 1.363 0 0 0-.506.012c-.05.02-.136.028-.136.028l-.05.021s-.012.035.025.048c.024.048.049.096.06.178.074.144.171.335.318.506.135.205.319.389.49.607.184.184.405.382.638.545.234.163.467.326.689.406.209.115.467.21.664.242.11.04.197.033.271.06.086-.008.16.019.247.011.086-.007.123.006.172-.015.037.014.05-.02.05-.02s.012-.035-.012-.083c-.086.008-.098-.075-.147-.17zM171.494 126.009a1.904 1.904 0 0 0-.384.367c-.137.146-.298.36-.386.6-.125.229-.225.504-.326.78-.1.275-.126.578-.19.867-.026.302-.053.605-.067.873 0 .116-.013.268.023.398 0 .117.011.199.047.33.012.082.024.164.048.212.025.048.012.082.012.082l.05-.02.148-.064c.05-.02.111-.076.21-.118.062-.056.161-.098.223-.153.174-.132.323-.312.447-.54.125-.227.262-.49.363-.765.1-.276.176-.6.202-.902.027-.302.029-.652.006-.934-.023-.281-.096-.542-.107-.74a.813.813 0 0 0-.085-.227c-.024-.048-.012-.082-.012-.082l-.05.02c-.073-.026-.122-.005-.172.016z"/>
        </g>
        <g fill="#138C80">
            <path d="M114.348 127.573a6.112 6.112 0 0 1 .902-1.772c.196-.266.416-.464.6-.648s.393-.299.528-.387c.074-.027.136-.088.172-.102l.074-.027s.013.035-.012.083c.013.034.001.117-.01.199l-.095.659c-.073.26-.133.555-.242.829-.097.308-.243.595-.39.883-.146.287-.33.588-.5.806a3.97 3.97 0 0 1-.552.669c-.085.11-.184.184-.245.245a1.99 1.99 0 0 0-.22.198c-.062.06-.136.088-.16.136l-.074.027-.025-.07c-.013-.034 0-.116-.026-.185.012-.082-.026-.186-.026-.302-.001-.117-.002-.234.034-.364.122-.24.17-.569.267-.877zM112.994 134.307a.99.99 0 0 1 .11-.274l.17-.335c.122-.24.293-.458.501-.69.209-.232.393-.416.639-.544a3.13 3.13 0 0 1 .7-.372c.222-.08.456-.127.653-.16.197-.032.37-.017.506.011.05.021.136.029.136.029l.05.02s.012.035-.025.049a.511.511 0 0 0-.06.178 2.46 2.46 0 0 1-.319.506c-.134.205-.318.389-.49.607a4.884 4.884 0 0 1-.637.544c-.234.163-.467.326-.689.407-.209.115-.467.209-.664.242-.111.04-.197.032-.271.06-.087-.008-.16.019-.247.011-.086-.007-.123.006-.173-.015-.037.013-.05-.021-.05-.021s-.012-.035.013-.082c.11-.04.135-.089.147-.17zM112.287 137.88c.012-.082.06-.178.097-.308.049-.096.085-.226.134-.322.122-.24.244-.479.403-.732.17-.218.38-.45.6-.647a3.7 3.7 0 0 1 .663-.476c.21-.115.43-.196.665-.242.197-.032.394-.065.517-.071.087.007.124-.006.173.015.037-.013.05.021.05.021s.012.035-.012.082c-.025.048-.049.096-.06.178-.074.144-.135.322-.257.562-.134.205-.256.444-.427.662-.172.219-.343.437-.564.635-.22.197-.417.347-.65.51-.197.15-.455.243-.64.31l-.258.094c-.074.027-.16.02-.235.047-.073.027-.123.006-.16.019-.037.013-.05-.021-.05-.021s-.012-.034.013-.082c-.025-.07-.014-.152-.002-.234zM111.976 141.504c.012-.082.023-.164.06-.294.036-.13.048-.213.084-.343.072-.26.194-.5.34-.787.16-.253.318-.506.502-.69a2.03 2.03 0 0 1 .638-.544 2.37 2.37 0 0 1 .627-.346c.185-.067.382-.1.505-.106.074-.026.124-.005.16-.019.037-.013.05.021.05.021s.013.035-.012.083c-.024.047 0 .116-.06.178-.024.164-.122.356-.207.582a4.038 4.038 0 0 1-.365.718c-.122.24-.33.471-.502.69a3.321 3.321 0 0 1-.589.565 5.02 5.02 0 0 1-.602.414c-.11.04-.172.102-.282.142l-.222.08c-.074.028-.11.041-.16.02l-.037.014s-.013-.035.012-.083c.036-.13.048-.212.06-.295zM112.07 145.098c.013-.083.012-.2.011-.316 0-.117.036-.247.072-.377.036-.247.145-.521.254-.795.11-.274.269-.527.428-.78a4.72 4.72 0 0 1 .563-.634c.184-.184.393-.3.602-.414.172-.102.357-.169.517-.188.074-.027.11-.04.16-.02l.037-.013s.013.034-.012.082c.013.035 0 .117-.01.2a8.375 8.375 0 0 1-.12.59c-.086.225-.158.486-.28.725-.122.24-.28.492-.403.732-.159.253-.33.471-.514.655-.184.184-.368.368-.54.47-.098.074-.172.101-.27.176-.074.027-.135.088-.21.115l-.147.054-.074.027s-.012-.035.012-.083a.22.22 0 0 1-.075-.206zM112.61 148.646c.012-.082-.026-.185-.027-.302 0-.117 0-.234.035-.364.023-.281.096-.542.156-.837.06-.294.206-.582.328-.821.159-.253.318-.506.501-.69.184-.184.368-.368.54-.47.16-.136.345-.203.492-.256l.148-.054.074-.027s.012.034-.012.082c.012.035 0 .117-.011.2.013.15-.035.363-.07.61a6.313 6.313 0 0 1-.181.768c-.073.26-.182.534-.34.787-.123.24-.282.492-.453.71a3.819 3.819 0 0 1-.515.54c-.098.074-.16.135-.22.197-.062.061-.136.088-.197.15-.074.026-.11.04-.135.087l-.074.027-.025-.069c0-.116-.026-.185-.014-.268zM113.568 152.082c-.025-.07-.026-.186-.064-.29 0-.116-.038-.22-.014-.384a3.36 3.36 0 0 1 .069-.844c.06-.295.12-.59.229-.864.11-.274.268-.527.39-.766.171-.219.318-.389.502-.573.16-.136.332-.238.43-.312.074-.027.11-.04.135-.089l.074-.027.025.07c.013.034 0 .116.026.185.013.151.015.385.016.618.001.234-.059.529-.094.776a4.67 4.67 0 0 1-.242.829c-.11.274-.219.548-.353.753-.122.24-.293.458-.44.628-.099.075-.147.17-.209.232-.061.061-.122.123-.196.15-.061.06-.098.074-.135.088l-.074.027-.025-.07c-.037.014-.062-.055-.05-.137zM110.859 129.935c.111.076.235.187.384.367.137.145.298.36.386.6a5.8 5.8 0 0 1 .326.78c.1.275.126.578.19.867.026.302.053.604.066.872.001.117.014.268-.022.399 0 .116-.011.199-.047.329a.793.793 0 0 1-.048.213c-.025.047-.012.082-.012.082l-.05-.021-.148-.063c-.05-.021-.111-.077-.21-.119-.062-.055-.161-.097-.223-.153a1.674 1.674 0 0 1-.447-.539 5.624 5.624 0 0 1-.363-.765 3.666 3.666 0 0 1-.202-.902 5.905 5.905 0 0 1-.006-.934c.023-.281.096-.542.107-.741.012-.082.06-.178.085-.226.024-.048.012-.082.012-.082l.05.02c.073-.026.122-.005.172.016zM109.637 133.93c.111.076.26.139.433.27.173.133.323.313.484.527.162.214.286.442.387.717l.3.827c.064.29.127.578.141.846.014.151.014.268.015.385 0 .117.001.233-.01.316-.012.082-.024.164-.012.199-.024.048-.012.082-.012.082l-.049-.02c-.05-.022-.086-.008-.136-.03-.05-.02-.136-.028-.198-.083-.099-.042-.16-.098-.26-.14a1.921 1.921 0 0 1-.508-.478c-.162-.214-.323-.428-.46-.69a2.404 2.404 0 0 1-.277-.875 5.852 5.852 0 0 1-.116-.894c-.014-.268.009-.55.02-.749l.036-.247c.024-.048.011-.082.011-.082l.05.021c.05.021.099.042.16.098zM108.884 137.949c.135.028.296.126.457.223.161.098.347.264.546.465.186.166.36.415.484.643.138.262.275.524.375.8.1.275.2.55.252.805.05.138.05.255.051.371 0 .117.038.22.027.303-.012.082.013.151.001.233.013.035-.012.083-.012.083s-.037.013-.05-.021c-.036.013-.086-.008-.172-.015-.05-.021-.136-.029-.222-.037-.087-.007-.186-.05-.285-.091a2.052 2.052 0 0 1-.557-.382c-.186-.167-.347-.381-.522-.63-.174-.248-.274-.524-.387-.834a3.188 3.188 0 0 1-.19-.867c-.026-.303-.028-.536-.054-.722a.725.725 0 0 0 0-.233c.023-.048.01-.083.01-.083l.05.021c.062-.061.111-.04.198-.032zM108.575 142.04c.136.029.32.078.482.176.198.084.371.216.594.369.186.166.384.367.546.581.162.214.336.463.473.725.137.262.262.49.325.779l.126.344c.037.104.038.22.063.29.025.068.013.15.038.22l.025.068-.036.014c-.037.013-.087-.008-.16.02-.087-.008-.124.005-.223-.037-.086-.008-.173-.015-.272-.057-.185-.05-.395-.168-.606-.287a3.337 3.337 0 0 1-.62-.554c-.198-.201-.335-.463-.485-.76a3.295 3.295 0 0 1-.301-.827 10.406 10.406 0 0 1-.14-.729c0-.117-.026-.185-.001-.233-.013-.035.011-.083.011-.083s.037-.013.05.021c-.025-.069.024-.048.11-.04zM108.722 146.121c.124-.005.309.044.494.094s.433.154.643.273c.21.118.446.306.644.507.199.2.397.401.572.65.161.214.298.476.423.704.038.103.125.228.162.33l.1.277.076.206.025.07-.074.026c-.037.013-.074.027-.16.02-.074.026-.16.019-.247.011a1.99 1.99 0 0 0-.296-.01 2.628 2.628 0 0 1-.655-.19c-.21-.119-.47-.258-.668-.459-.199-.2-.41-.436-.584-.685a3.386 3.386 0 0 1-.412-.786c-.1-.276-.188-.517-.213-.702-.038-.104-.026-.186-.039-.22l-.025-.07.037-.013a.376.376 0 0 1 .197-.033zM109.338 150.11a4.26 4.26 0 0 1 .506.011c.222.037.457.107.654.191.248.105.47.258.694.411.222.153.458.34.62.555.198.2.36.415.521.629.075.09.125.228.2.318.037.103.112.193.137.262l.075.206.025.07-.074.026-.148.054c-.073.027-.147.054-.234.046-.086-.007-.197.033-.283.025a2.385 2.385 0 0 1-.667-.108 2.748 2.748 0 0 1-.717-.363 4.986 4.986 0 0 1-.67-.576 3.885 3.885 0 0 1-.51-.711c-.124-.228-.212-.47-.287-.676l-.076-.207-.025-.068.074-.027.185-.068z"/>
            <path d="M113.99 129.81c.1.041.113.192.064.288-3.488 8.682-3.281 18.67 1.256 26.655a.23.23 0 0 1-.048.33c-.098.074-.197.032-.284-.092-4.574-8.088-4.819-18.18-1.257-27.006.036-.13.183-.183.27-.176z"/>
            <path d="M114.183 131.026c.012-.082.06-.178.11-.273l.17-.336c.122-.239.293-.457.502-.69.208-.231.392-.415.638-.544a3.13 3.13 0 0 1 .7-.372c.222-.08.456-.127.653-.16.198-.032.37-.017.506.012.05.02.136.028.136.028l.05.021s.012.035-.025.048c-.024.048-.049.096-.06.178a2.46 2.46 0 0 1-.318.506c-.135.205-.319.389-.49.607a4.884 4.884 0 0 1-.638.545c-.233.163-.467.326-.688.406-.21.115-.468.21-.665.242-.11.04-.197.033-.271.06-.086-.008-.16.019-.247.011-.086-.007-.123.006-.172-.015-.037.014-.05-.02-.05-.02s-.012-.035.012-.083c.086.008.098-.075.147-.17zM112.106 126.009c.111.076.235.187.384.367.137.146.299.36.386.6.125.229.225.504.326.78.1.275.126.578.19.867.026.302.053.605.067.873 0 .116.014.268-.023.398.001.117-.01.199-.047.33-.012.082-.024.164-.048.212-.025.048-.012.082-.012.082l-.05-.02-.148-.064c-.05-.02-.111-.076-.21-.118-.062-.056-.161-.098-.223-.153a1.674 1.674 0 0 1-.447-.54 5.624 5.624 0 0 1-.363-.765 3.666 3.666 0 0 1-.202-.902 5.905 5.905 0 0 1-.006-.934c.023-.281.096-.542.107-.74a.813.813 0 0 1 .085-.227c.024-.048.012-.082.012-.082l.05.02c.073-.026.122-.005.172.016z"/>
        </g>
    </g>
</svg>
